<svg width="35" height="21" viewBox="0 0 35 21" fill="none" xmlns="http://www.w3.org/2000/svg">
<path d="M27.5153 3.00786C28.0533 4.74251 28.2047 6.57477 27.96 8.39015C27.7153 10.2055 27.0799 11.9651 26.0933 13.5588C25.1067 15.1525 23.7902 16.5462 22.2261 17.6527C20.6619 18.7593 18.8837 19.555 17.0026 19.9901L16.9686 19.84C17.0196 19.8282 17.0705 19.8161 17.1214 19.8038C18.9241 19.3666 20.6277 18.5935 22.1312 17.5299C23.6771 16.4362 24.9783 15.0588 25.9534 13.4836C26.9284 11.9085 27.5565 10.1694 27.7983 8.37521C28.0336 6.62994 27.8984 4.8689 27.4015 3.1962C27.3876 3.14927 27.3733 3.10241 27.3588 3.05562L27.5153 3.00786Z" fill="#1ECBE1" fill-opacity="0.5"/>
<path d="M17.0076 19.9922C16.4698 18.2581 16.3184 16.4266 16.5627 14.6119C16.8069 12.7971 17.4418 11.0382 18.4275 9.44476C19.4132 7.85136 20.7286 6.45775 22.2917 5.35093C23.8547 4.24411 25.6318 3.44783 27.5121 3.01182L27.5462 3.16189C27.4979 3.17309 27.4497 3.18453 27.4015 3.1962C25.5967 3.63393 23.8913 4.40824 22.3866 5.47374C20.8418 6.56767 19.5416 7.94505 18.5674 9.51988C17.5932 11.0947 16.9658 12.8332 16.7243 14.6268C16.4895 16.3714 16.6247 18.1317 17.1214 19.8038C17.1354 19.8507 17.1496 19.8976 17.1641 19.9444L17.0076 19.9922Z" fill="#1ECBE1" fill-opacity="0.5"/>
<path d="M17.1214 19.8038C18.9241 19.3666 20.6277 18.5935 22.1312 17.5299C23.6771 16.4362 24.9783 15.0588 25.9534 13.4836C26.9284 11.9085 27.5565 10.1694 27.7983 8.37521C28.0336 6.62994 27.8984 4.8689 27.4015 3.1962C25.5967 3.63393 23.8913 4.40824 22.3866 5.47374C20.8418 6.56767 19.5416 7.94505 18.5674 9.51988C17.5932 11.0947 16.9658 12.8332 16.7243 14.6268C16.4895 16.3714 16.6247 18.1317 17.1214 19.8038Z" fill="#1ECBE1" fill-opacity="0.5"/>
<path d="M17.0604 19.9921C17.5984 18.2575 17.7498 16.4252 17.5051 14.6098C17.2604 12.7945 16.625 11.0349 15.6384 9.44122C14.6518 7.8475 13.3353 6.45383 11.7712 5.34725C10.207 4.24068 8.42883 3.44499 6.54767 3.00989L6.51366 3.15998C6.5647 3.17178 6.61566 3.18386 6.66653 3.1962C8.46923 3.63341 10.1728 4.40645 11.6763 5.47011C13.2222 6.56379 14.5234 7.94123 15.4985 9.51638C16.4736 11.0915 17.1016 12.8306 17.3434 14.6248C17.5787 16.3701 17.4435 18.1311 16.9466 19.8038C16.9327 19.8507 16.9184 19.8976 16.9039 19.9444L17.0604 19.9921Z" fill="#1ECBE1" fill-opacity="0.5"/>
<path d="M6.55274 3.00784C6.01494 4.74185 5.86347 6.57339 6.10776 8.38813C6.35205 10.2029 6.98687 11.9618 7.97258 13.5552C8.95829 15.1486 10.2737 16.5422 11.8368 17.6491C13.3998 18.7559 15.1769 19.5522 17.0572 19.9882L17.0913 19.8381C17.043 19.8269 16.9948 19.8155 16.9466 19.8038C15.1418 19.3661 13.4364 18.5918 11.9317 17.5263C10.3869 16.4323 9.08675 15.0549 8.11252 13.4801C7.13829 11.9053 6.51087 10.1668 6.26942 8.37321C6.03457 6.62858 6.16981 4.86825 6.66653 3.1962C6.68048 3.14926 6.69471 3.1024 6.70922 3.0556L6.55274 3.00784Z" fill="#1ECBE1" fill-opacity="0.5"/>
<path d="M6.66653 3.1962C8.46923 3.63341 10.1728 4.40645 11.6763 5.47011C13.2222 6.56379 14.5234 7.94123 15.4985 9.51638C16.4736 11.0915 17.1016 12.8306 17.3434 14.6248C17.5787 16.3701 17.4435 18.1311 16.9466 19.8038C15.1418 19.3661 13.4364 18.5918 11.9317 17.5263C10.3869 16.4323 9.08675 15.0549 8.11252 13.4801C7.13829 11.9053 6.51087 10.1668 6.26942 8.37321C6.03457 6.62858 6.16981 4.86825 6.66653 3.1962Z" fill="#1ECBE1" fill-opacity="0.5"/>
<path d="M34.1362 9.62686C33.7054 11.495 32.9092 13.2589 31.7975 14.8083C30.6857 16.3578 29.2822 17.6596 27.6747 18.6323C26.0672 19.6051 24.2902 20.2279 22.4548 20.4619C20.6193 20.6958 18.7653 20.5359 17.0076 19.9922L17.0546 19.8368C17.1023 19.8516 17.1501 19.8661 17.1979 19.8802C18.8924 20.3827 20.6745 20.526 22.4388 20.3011C24.2529 20.0698 26.0092 19.4543 27.598 18.4929C29.1868 17.5314 30.5739 16.2448 31.6727 14.7134C32.7415 13.2238 33.5152 11.5336 33.9485 9.74322C33.9607 9.69299 33.9726 9.64267 33.9842 9.59229L34.1362 9.62686Z" fill="#1ECBE1" fill-opacity="0.5"/>
<path d="M17.0102 19.9966C17.4408 18.1292 18.2366 16.3659 19.3477 14.8168C20.4588 13.2678 21.8615 11.9662 23.4681 10.9933C25.0748 10.0204 26.8509 9.39711 28.6856 9.16236C30.5203 8.92761 32.3742 9.08642 34.1316 9.62888L34.0841 9.78425C34.039 9.77031 33.9938 9.75664 33.9485 9.74322C32.252 9.24021 30.4678 9.09717 28.7016 9.32316C26.8882 9.55518 25.1328 10.1712 23.5449 11.1327C21.957 12.0943 20.5707 13.3807 19.4725 14.9118C18.4043 16.401 17.631 18.0905 17.1979 19.8802C17.1857 19.9305 17.1738 19.9808 17.1622 20.0312L17.0102 19.9966Z" fill="#1ECBE1" fill-opacity="0.5"/>
<path d="M17.1979 19.8802C18.8924 20.3827 20.6745 20.526 22.4388 20.3011C24.2529 20.0698 26.0092 19.4543 27.598 18.4929C29.1868 17.5314 30.5739 16.2448 31.6727 14.7134C32.7415 13.2238 33.5152 11.5336 33.9485 9.74322C32.252 9.24021 30.4678 9.09717 28.7016 9.32316C26.8882 9.55518 25.1328 10.1712 23.5449 11.1327C21.957 12.0943 20.5707 13.3807 19.4725 14.9118C18.4043 16.401 17.631 18.0905 17.1979 19.8802Z" fill="#1ECBE1" fill-opacity="0.5"/>
<path d="M17.1362 19.9647C16.7054 18.0965 15.9093 16.3327 14.7975 14.7832C13.6857 13.2337 12.2823 11.9319 10.6748 10.9592C9.06725 9.98643 7.29025 9.36361 5.45477 9.12964C3.6193 8.89567 1.76478 9.05556 0.00708008 9.59934L0.0546223 9.75468C0.102308 9.73992 0.150066 9.72546 0.197894 9.71128C1.89245 9.20886 3.67455 9.06555 5.43885 9.29045C7.25294 9.5217 9.00924 10.1373 10.598 11.0987C12.1868 12.0601 13.5739 13.3467 14.6727 14.8781C15.7415 16.3678 16.5152 18.0579 16.9486 19.8483C16.9607 19.8985 16.9726 19.9488 16.9842 19.9992L17.1362 19.9647Z" fill="#1ECBE1" fill-opacity="0.5"/>
<path d="M0.0102012 9.59491C0.440863 11.4623 1.23659 13.2256 2.34772 14.7747C3.45884 16.3238 4.8615 17.6254 6.46814 18.5983C8.07477 19.5711 9.85088 20.1944 11.6856 20.4292C13.5203 20.6639 15.3742 20.5051 17.1316 19.9626L17.0842 19.8073C17.039 19.8212 16.9938 19.8349 16.9486 19.8483C15.252 20.3513 13.4678 20.4943 11.7016 20.2684C9.88825 20.0363 8.13283 19.4203 6.54492 18.4588C4.957 17.4972 3.57068 16.2108 2.47251 14.6798C1.40431 13.1905 0.631045 11.501 0.197894 9.71128C0.185735 9.66104 0.173844 9.61072 0.162223 9.56033L0.0102012 9.59491Z" fill="#1ECBE1" fill-opacity="0.5"/>
<path d="M0.197894 9.71128C1.89245 9.20886 3.67455 9.06555 5.43885 9.29045C7.25294 9.5217 9.00924 10.1373 10.598 11.0987C12.1868 12.0601 13.5739 13.3467 14.6727 14.8781C15.7415 16.3678 16.5152 18.0579 16.9486 19.8483C15.252 20.3513 13.4678 20.4943 11.7016 20.2684C9.88825 20.0363 8.13283 19.4203 6.54492 18.4588C4.957 17.4972 3.57068 16.2108 2.47251 14.6798C1.40431 13.1905 0.631045 11.501 0.197894 9.71128Z" fill="#1ECBE1" fill-opacity="0.5"/>
<path d="M16.7974 0.0105591C18.1836 1.27314 19.2946 2.80804 20.0609 4.51936C20.8273 6.23068 21.2324 8.08166 21.2512 9.95666C21.2699 11.8317 20.9017 13.6904 20.1698 15.4167C19.4378 17.1431 18.3576 18.6999 16.9969 19.9901L16.8876 19.8748C16.9245 19.8398 16.9612 19.8046 16.9977 19.7692C18.2908 18.5151 19.3199 17.0141 20.0235 15.3547C20.7469 13.6485 21.1108 11.8114 21.0923 9.95825C21.0738 8.1051 20.6733 6.27568 19.9159 4.5843C19.1792 2.93907 18.1202 1.45883 16.8019 0.230796C16.765 0.196341 16.7278 0.162085 16.6904 0.128029L16.7974 0.0105591Z" fill="#1ECBE1" fill-opacity="0.5"/>
<path d="M17.0026 19.9901C15.6168 18.728 14.5058 17.1931 13.7395 15.4825C12.9732 13.7719 12.5678 11.9217 12.5485 10.0474C12.5292 8.17315 12.8965 6.31498 13.6274 4.58894C14.3584 2.86291 15.4373 1.30606 16.7967 0.0155993L16.9061 0.130834C16.8712 0.163977 16.8365 0.197299 16.8019 0.230796C15.5073 1.48635 14.4774 2.9893 13.7737 4.6509C13.0513 6.35682 12.6883 8.19334 12.7074 10.0458C12.7264 11.8983 13.1272 13.7269 13.8845 15.4175C14.6212 17.062 15.68 18.5416 16.9977 19.7692C17.0347 19.8036 17.0719 19.8379 17.1093 19.8719L17.0026 19.9901Z" fill="#1ECBE1" fill-opacity="0.5"/>
<path d="M16.9977 19.7692C18.2908 18.5151 19.3199 17.0141 20.0235 15.3547C20.7469 13.6485 21.1108 11.8114 21.0923 9.95825C21.0738 8.1051 20.6733 6.27568 19.9159 4.5843C19.1792 2.93907 18.1202 1.45883 16.8019 0.230796C15.5073 1.48635 14.4774 2.9893 13.7737 4.6509C13.0513 6.35682 12.6883 8.19334 12.7074 10.0458C12.7264 11.8983 13.1272 13.7269 13.8845 15.4175C14.6212 17.062 15.68 18.5416 16.9977 19.7692Z" fill="#1ECBE1" fill-opacity="0.5"/>
</svg>
