<svg width="35" height="21" viewBox="0 0 35 21" fill="none" xmlns="http://www.w3.org/2000/svg">
<path d="M27.5082 2.9973C28.0462 4.73195 28.1976 6.56421 27.9529 8.37959C27.7083 10.195 27.0728 11.9545 26.0862 13.5482C25.0996 15.1419 23.7831 16.5356 22.219 17.6422C20.6548 18.7488 18.8766 19.5444 16.9955 19.9795L16.9615 19.8295C17.0125 19.8177 17.0635 19.8056 17.1143 19.7932C18.917 19.356 20.6206 18.583 22.1241 17.5193C23.67 16.4256 24.9712 15.0482 25.9463 13.4731C26.9214 11.8979 27.5494 10.1589 27.7913 8.36465C28.0265 6.61938 27.8913 4.85834 27.3944 3.18564C27.3805 3.13871 27.3663 3.09185 27.3517 3.04506L27.5082 2.9973Z" fill="white" fill-opacity="0.5"/>
<path d="M17.0006 19.9816C16.4628 18.2476 16.3113 16.416 16.5556 14.6013C16.7999 12.7866 17.4347 11.0276 18.4204 9.4342C19.4061 7.8408 20.7215 6.44719 22.2846 5.34037C23.8477 4.23355 25.6248 3.43727 27.505 3.00126L27.5391 3.15133C27.4908 3.16253 27.4426 3.17397 27.3944 3.18564C25.5896 3.62337 23.8842 4.39768 22.3795 5.46318C20.8347 6.55711 19.5346 7.93449 18.5603 9.50932C17.5861 11.0842 16.9587 12.8226 16.7172 14.6162C16.4824 16.3609 16.6176 18.1212 17.1143 19.7932C17.1283 19.8402 17.1425 19.887 17.157 19.9338L17.0006 19.9816Z" fill="white" fill-opacity="0.5"/>
<path d="M17.1143 19.7932C18.917 19.356 20.6206 18.583 22.1241 17.5193C23.67 16.4256 24.9712 15.0482 25.9463 13.4731C26.9214 11.8979 27.5494 10.1589 27.7913 8.36465C28.0265 6.61938 27.8913 4.85834 27.3944 3.18564C25.5896 3.62337 23.8842 4.39768 22.3795 5.46318C20.8347 6.55711 19.5346 7.93449 18.5603 9.50932C17.5861 11.0842 16.9587 12.8226 16.7172 14.6162C16.4824 16.3609 16.6176 18.1212 17.1143 19.7932Z" fill="white" fill-opacity="0.5"/>
<path d="M17.0533 19.9816C17.5913 18.2469 17.7427 16.4147 17.498 14.5993C17.2534 12.7839 16.6179 11.0244 15.6313 9.43066C14.6447 7.83695 13.3282 6.44327 11.7641 5.33669C10.1999 4.23012 8.42174 3.43443 6.54059 2.99933L6.50658 3.14942C6.55762 3.16122 6.60858 3.1733 6.65945 3.18564C8.46215 3.62286 10.1657 4.39589 11.6692 5.45955C13.2152 6.55323 14.5163 7.93067 15.4914 9.50583C16.4665 11.081 17.0945 12.82 17.3364 14.6142C17.5716 16.3595 17.4364 18.1205 16.9395 19.7932C16.9256 19.8402 16.9114 19.887 16.8968 19.9338L17.0533 19.9816Z" fill="white" fill-opacity="0.5"/>
<path d="M6.54566 2.99728C6.00786 4.73129 5.85639 6.56283 6.10068 8.37757C6.34497 10.1923 6.97979 11.9513 7.9655 13.5447C8.95121 15.1381 10.2667 16.5317 11.8297 17.6385C13.3928 18.7453 15.1699 19.5416 17.0501 19.9776L17.0842 19.8275C17.0359 19.8163 16.9877 19.8049 16.9395 19.7932C15.1347 19.3555 13.4293 18.5812 11.9246 17.5157C10.3798 16.4218 9.07967 15.0444 8.10544 13.4696C7.13121 11.8947 6.50379 10.1562 6.26234 8.36265C6.02749 6.61803 6.16273 4.85769 6.65945 3.18564C6.6734 3.1387 6.68763 3.09184 6.70214 3.04504L6.54566 2.99728Z" fill="white" fill-opacity="0.5"/>
<path d="M6.65945 3.18564C8.46215 3.62286 10.1657 4.39589 11.6692 5.45955C13.2152 6.55323 14.5163 7.93067 15.4914 9.50583C16.4665 11.081 17.0945 12.82 17.3364 14.6142C17.5716 16.3595 17.4364 18.1205 16.9395 19.7932C15.1347 19.3555 13.4293 18.5812 11.9246 17.5157C10.3798 16.4218 9.07967 15.0444 8.10544 13.4696C7.13121 11.8947 6.50379 10.1562 6.26234 8.36265C6.02749 6.61803 6.16273 4.85769 6.65945 3.18564Z" fill="white" fill-opacity="0.5"/>
<path d="M34.1291 9.6163C33.6983 11.4844 32.9022 13.2483 31.7904 14.7978C30.6786 16.3473 29.2752 17.649 27.6677 18.6218C26.0602 19.5945 24.2832 20.2173 22.4477 20.4513C20.6122 20.6853 18.7583 20.5254 17.0006 19.9816L17.0475 19.8263C17.0952 19.841 17.143 19.8555 17.1908 19.8697C18.8854 20.3721 20.6675 20.5154 22.4318 20.2905C24.2458 20.0593 26.0021 19.4437 27.5909 18.4823C29.1797 17.5209 30.5668 16.2343 31.6656 14.7028C32.7344 13.2132 33.5081 11.5231 33.9415 9.73266C33.9536 9.68243 33.9655 9.63212 33.9771 9.58173L34.1291 9.6163Z" fill="white" fill-opacity="0.5"/>
<path d="M17.0031 19.9861C17.4338 18.1186 18.2295 16.3554 19.3406 14.8063C20.4517 13.2572 21.8544 11.9556 23.461 10.9827C25.0677 10.0098 26.8438 9.38655 28.6785 9.1518C30.5132 8.91705 32.3671 9.07586 34.1245 9.61832L34.0771 9.77369C34.0319 9.75976 33.9867 9.74608 33.9415 9.73266C32.2449 9.22965 30.4607 9.08662 28.6945 9.3126C26.8812 9.54462 25.1257 10.1606 23.5378 11.1222C21.9499 12.0837 20.5636 13.3702 19.4654 14.9012C18.3972 16.3904 17.6239 18.08 17.1908 19.8697C17.1786 19.9199 17.1667 19.9702 17.1551 20.0206L17.0031 19.9861Z" fill="white" fill-opacity="0.5"/>
<path d="M17.1908 19.8697C18.8854 20.3721 20.6675 20.5154 22.4318 20.2905C24.2458 20.0593 26.0021 19.4437 27.5909 18.4823C29.1797 17.5209 30.5668 16.2343 31.6656 14.7028C32.7344 13.2132 33.5081 11.5231 33.9415 9.73266C32.2449 9.22965 30.4607 9.08662 28.6945 9.3126C26.8812 9.54462 25.1257 10.1606 23.5378 11.1222C21.9499 12.0837 20.5636 13.3702 19.4654 14.9012C18.3972 16.3904 17.6239 18.08 17.1908 19.8697Z" fill="white" fill-opacity="0.5"/>
<path d="M17.1292 19.9541C16.6983 18.086 15.9022 16.3221 14.7904 14.7726C13.6787 13.2231 12.2752 11.9214 10.6677 10.9486C9.06017 9.97587 7.28317 9.35305 5.44769 9.11908C3.61222 8.88511 1.7577 9.045 0 9.58878L0.0475422 9.74412C0.0952279 9.72937 0.142986 9.7149 0.190813 9.70072C1.88537 9.1983 3.66747 9.05499 5.43177 9.27989C7.24586 9.51114 9.00216 10.1267 10.5909 11.0881C12.1797 12.0495 13.5668 13.3361 14.6656 14.8676C15.7345 16.3572 16.5082 18.0473 16.9415 19.8377C16.9536 19.888 16.9655 19.9383 16.9771 19.9887L17.1292 19.9541Z" fill="white" fill-opacity="0.5"/>
<path d="M0.00312112 9.58435C0.433783 11.4518 1.22951 13.215 2.34064 14.7641C3.45176 16.3132 4.85442 17.6148 6.46106 18.5877C8.06769 19.5606 9.8438 20.1838 11.6785 20.4186C13.5132 20.6533 15.3671 20.4945 17.1245 19.9521L17.0771 19.7967C17.0319 19.8106 16.9867 19.8243 16.9415 19.8377C15.2449 20.3407 13.4607 20.4838 11.6945 20.2578C9.88117 20.0258 8.12575 19.4098 6.53784 18.4482C4.94992 17.4867 3.5636 16.2002 2.46543 14.6692C1.39723 13.18 0.623965 11.4904 0.190813 9.70072C0.178655 9.65048 0.166764 9.60016 0.155143 9.54977L0.00312112 9.58435Z" fill="white" fill-opacity="0.5"/>
<path d="M0.190813 9.70072C1.88537 9.1983 3.66747 9.05499 5.43177 9.27989C7.24586 9.51114 9.00216 10.1267 10.5909 11.0881C12.1797 12.0495 13.5668 13.3361 14.6656 14.8676C15.7345 16.3572 16.5082 18.0473 16.9415 19.8377C15.2449 20.3407 13.4607 20.4838 11.6945 20.2578C9.88117 20.0258 8.12575 19.4098 6.53784 18.4482C4.94992 17.4867 3.5636 16.2002 2.46543 14.6692C1.39723 13.18 0.623965 11.4904 0.190813 9.70072Z" fill="white" fill-opacity="0.5"/>
<path d="M16.7903 0C18.1765 1.26258 19.2875 2.79748 20.0539 4.5088C20.8202 6.22012 21.2254 8.0711 21.2441 9.9461C21.2628 11.8211 20.8947 13.6798 20.1627 15.4062C19.4307 17.1325 18.3506 18.6894 16.9898 19.9795L16.8805 19.8642C16.9174 19.8292 16.9541 19.794 16.9906 19.7586C18.2837 18.5045 19.3128 17.0036 20.0164 15.3442C20.7399 13.6379 21.1037 11.8009 21.0852 9.9477C21.0667 8.09454 20.6662 6.26513 19.9088 4.57374C19.1721 2.92851 18.1131 1.44827 16.7949 0.220237C16.7579 0.185782 16.7207 0.151526 16.6833 0.11747L16.7903 0Z" fill="white" fill-opacity="0.5"/>
<path d="M16.9955 19.9795C15.6097 18.7174 14.4987 17.1825 13.7324 15.4719C12.9662 13.7614 12.5607 11.9112 12.5414 10.0369C12.5221 8.16259 12.8894 6.30442 13.6204 4.57839C14.3513 2.85235 15.4302 1.29551 16.7897 0.00504019L16.899 0.120275C16.8641 0.153418 16.8294 0.18674 16.7949 0.220237C15.5002 1.47579 14.4703 2.97874 13.7667 4.64034C13.0442 6.34627 12.6812 8.18278 12.7003 10.0352C12.7194 11.8877 13.1201 13.7163 13.8774 15.407C14.6141 17.0515 15.6729 18.531 16.9906 19.7586C17.0276 19.7931 17.0648 19.8273 17.1022 19.8614L16.9955 19.9795Z" fill="white" fill-opacity="0.5"/>
<path d="M16.9906 19.7586C18.2837 18.5045 19.3128 17.0036 20.0164 15.3442C20.7399 13.6379 21.1037 11.8009 21.0852 9.9477C21.0667 8.09454 20.6662 6.26513 19.9088 4.57374C19.1721 2.92851 18.1131 1.44827 16.7949 0.220237C15.5002 1.47579 14.4703 2.97874 13.7667 4.64034C13.0442 6.34627 12.6812 8.18278 12.7003 10.0352C12.7194 11.8877 13.1201 13.7163 13.8774 15.407C14.6141 17.0515 15.6729 18.531 16.9906 19.7586Z" fill="white" fill-opacity="0.5"/>
</svg>
